; Drill file
; Format: 3.3 (000.000)
M48
METRIC
T01C0.3
T02C0.4
T03C0.5
T04C0.7
T05C0.8
T06C0.9
T07C1.0
T08C1.1
T09C1.2
T10C3.05
%
G05
G90
T01
X011010Y027420
X011560Y028530
X034200Y023490
X035170Y024390
X036070Y028240
X036120Y029570
X040770Y028700
X044060Y025700
X044600Y031890
X045710Y032840
X046660Y031890
X042690Y032840
X048320Y038600
X051770Y039200
X052990Y038930
X053290Y037660
X057260Y036790
X051740Y030700
X036500Y046090
X034400Y046090
X040590Y056290
X038810Y057390
X035610Y059740
X037640Y064700
X035610Y069930
X037640Y074800
X043280Y079360
X047050Y072770
X043280Y068320
X047050Y061740
X047780Y057390
X043840Y056290
X046290Y052910
X052950Y065770
X051760Y067040
X052950Y076800
X051760Y078070
X041320Y088850
X036950Y088850
X034090Y086810
X026710Y083550
X069850Y080410
X072870Y071570
T02
X011640Y032020
X018300Y026990
X020770Y026980
X025240Y028670
X030530Y030990
X036940Y033950
X040750Y035190
X045880Y040800
X046560Y044640
X047660Y054020
X042820Y054020
X035610Y061030
X035610Y071200
X046120Y067080
X052950Y068310
X054370Y073580
X052950Y079340
X046120Y078110
X039130Y084300
X038020Y084300
X038020Y085530
X039130Y085530
X061990Y078900
X071440Y078900
X076680Y078420
X070000Y055800
X070000Y051790
X070000Y046630
X070000Y041470
X058240Y042640
X056950Y044690
X058240Y046930
X055760Y047870
X058240Y051220
X055760Y052160
X058240Y055540
X055760Y056480
X054370Y062540
X053490Y035470
X051560Y035120
X057250Y032300
X060060Y029040
X054950Y025790
X049060Y025700
X046380Y029710
T03
X004490Y015270
X003810Y016890
X004490Y018520
X006110Y019190
X007740Y018520
X008410Y016890
X007740Y015270
X006110Y014590
X008970Y012980
X015320Y012980
X015290Y020870
X026510Y021510
X026510Y024050
X030320Y025320
X030320Y022780
X038280Y020240
X041580Y020190
X045200Y020240
X048550Y020280
X051950Y020280
X055470Y020240
X058960Y020240
X055470Y016670
X061590Y012980
X064760Y016670
X066990Y012980
X069200Y016670
X073810Y016890
X074490Y018520
X076110Y019190
X077740Y018520
X078410Y016890
X077740Y015270
X076110Y014590
X074490Y015270
X072040Y013000
X079860Y022350
X079860Y027700
X079860Y033060
X079860Y038410
X079860Y043760
X079860Y049120
X079860Y054470
X079860Y059820
X079860Y065180
X079860Y070530
X079860Y075880
X079860Y081240
X077740Y085270
X078410Y086890
X077740Y088520
X076110Y089190
X074490Y088520
X073810Y086890
X074490Y085270
X076110Y084590
X070470Y090620
X063250Y090630
X055630Y090620
X048080Y090620
X040900Y090630
X033490Y090620
X026730Y088020
X025430Y088030
X025430Y086700
X025430Y085410
X026730Y085410
X026730Y086700
X026080Y090610
X022440Y088020
X021140Y088030
X021140Y086700
X021140Y085410
X022520Y085410
X022440Y086700
X029260Y078820
X030530Y078820
X031800Y078820
X033070Y078820
X034340Y078820
X034340Y077550
X033070Y077550
X031800Y077550
X030530Y077550
X029260Y077550
X026560Y073980
X026560Y072710
X025290Y072710
X025290Y073980
X024020Y073980
X024020Y072710
X024020Y071440
X025290Y071440
X026560Y071440
X026560Y070170
X025290Y070170
X024020Y070170
X029260Y068660
X030530Y068660
X031800Y068660
X033070Y068660
X034340Y068660
X034340Y067390
X033070Y067390
X031800Y067390
X030530Y067390
X029260Y067390
X026560Y063260
X026560Y061990
X025290Y061990
X025290Y063260
X024020Y063260
X024020Y061990
X024020Y060720
X024020Y059450
X025290Y059450
X025290Y060720
X026560Y060720
X026560Y059450
X025550Y048650
X029040Y040780
X016410Y032970
X002030Y031230
X002030Y025710
X002030Y019700
X002030Y037520
X002030Y042660
X002030Y050660
X002030Y055740
X001940Y063970
X001940Y074920
X001940Y082700
X004490Y085270
X003810Y086890
X004490Y088520
X006110Y089190
X007740Y088520
X008410Y086890
X007740Y085270
X006110Y084590
X010310Y084440
X010310Y085720
X011610Y085720
X011610Y084440
X011610Y083140
X010310Y083140
X010310Y081860
X010310Y087060
X011610Y087040
X011610Y088360
X034090Y083000
X044650Y083000
X064310Y073590
X064340Y067930
X064340Y060710
X052820Y056480
X052820Y047870
X065420Y030150
X065420Y026460
X045200Y016670
X039130Y025320
X032380Y012980
X009670Y046570
T04
X007250Y025620
X007250Y031400
X032440Y019040
X032440Y016500
X061990Y081360
X064530Y081360
T05
X012540Y063900
X017620Y063900
X067830Y063900
X072910Y063900
T06
X040170Y015920
X048170Y015920
T07
X003640Y024180
X003640Y032830
X004870Y036240
X004870Y038780
X004870Y041320
X004870Y043860
X004870Y049420
X004870Y051960
X004870Y054500
X004870Y057040
X004830Y062640
X004830Y065180
X015070Y055260
X017610Y055260
X020150Y055260
X022740Y055260
X025230Y055260
X027770Y055260
X030310Y055260
X032850Y055260
X043500Y049520
X043500Y046980
X043500Y044440
X032850Y042480
X030310Y042480
X027770Y042480
X025230Y042480
X022690Y042480
X020150Y042480
X017610Y042480
X015070Y042480
X015070Y045020
X015070Y047560
X013850Y038320
X013850Y035780
X016390Y035780
X018930Y035780
X018930Y038320
X016390Y038320
X024170Y035780
X026710Y035780
X029250Y035780
X031790Y035780
X034330Y035780
X059450Y087950
X061990Y087950
T08
X006640Y072400
X006640Y077480
T09
X007930Y024180
X007930Y032830
T10
X006110Y016890
X006110Y086890
X076110Y086890
X076110Y016890
M30
