%TF.GenerationSoftware,KiCad,Pcbnew,9.0.4*%
%TF.CreationDate,2026-05-06T12:40:29+03:00*%
%TF.ProjectId,simplified_periphery_board,73696d70-6c69-4666-9965-645f70657269,rev?*%
%TF.SameCoordinates,PX998aa40PY5204180*%
%TF.FileFunction,Profile,NP*%
%FSLAX46Y46*%
G04 Gerber Fmt 4.6, Leading zero omitted, Abs format (unit mm)*
G04 Created by KiCad (PCBNEW 9.0.4) date 2026-05-06 12:40:29*
%MOMM*%
%LPD*%
G01*
G04 APERTURE LIST*
%TA.AperFunction,Profile*%
%ADD10C,0.200000*%
%TD*%
G04 APERTURE END LIST*
D10*
X-27500001Y-52000000D02*
G75*
G02*
X-37500000Y-42000001I1J10000000D01*
G01*
X13750000Y38875000D02*
G75*
G02*
X10375000Y35500000I-3375000J0D01*
G01*
X-42557868Y-16250785D02*
G75*
G02*
X-43500020Y-13329533I4057868J2921285D01*
G01*
X12500000Y-42375000D02*
X12500000Y-47000000D01*
X-37500001Y-24889155D02*
X-37500000Y-24889155D01*
X17500000Y-52000000D02*
G75*
G02*
X12500000Y-47000000I0J5000000D01*
G01*
X-10374999Y35500000D02*
G75*
G02*
X-13750000Y38875001I-1J3375000D01*
G01*
X-124999Y-39000000D02*
G75*
G02*
X-3500000Y-35624998I-1J3375000D01*
G01*
X-38442132Y-21967902D02*
G75*
G02*
X-37499973Y-24889155I-4057868J-2921298D01*
G01*
X-3500000Y-35375001D02*
X-3500000Y-35624998D01*
X43500000Y-13329470D02*
G75*
G02*
X42557843Y-16250850I-5000200J-30D01*
G01*
X-17125001Y45500000D02*
G75*
G02*
X-13750000Y42124998I1J-3375000D01*
G01*
X-13750000Y38875001D02*
X-13750000Y42124998D01*
X43500000Y-13329470D02*
X43500000Y40500000D01*
X-17125001Y45500000D02*
X-38500001Y45500000D01*
X38500000Y45500000D02*
G75*
G02*
X43500000Y40500000I0J-5000000D01*
G01*
X-124999Y-39000000D02*
X9125000Y-39000000D01*
X-6875001Y-32000000D02*
G75*
G02*
X-3500000Y-35375001I1J-3375000D01*
G01*
X11000000Y-18000000D02*
G75*
G02*
X-11000000Y-18000000I-11000000J0D01*
G01*
X-11000000Y-18000000D02*
G75*
G02*
X11000000Y-18000000I11000000J0D01*
G01*
X13750000Y42125000D02*
G75*
G02*
X17125000Y45500000I3375000J0D01*
G01*
X38442184Y-21967831D02*
X42557829Y-16250840D01*
X-37500000Y-24889155D02*
X-37500000Y-42000001D01*
X37500000Y-42000000D02*
X37500000Y-24889250D01*
X9125000Y-39000000D02*
G75*
G02*
X12500000Y-42375000I0J-3375000D01*
G01*
X13750000Y42125000D02*
X13750000Y38875000D01*
X-27500001Y-52000000D02*
X-27075001Y-52000000D01*
X17500000Y-52000000D02*
X27500000Y-52000000D01*
X-23700000Y-48624998D02*
G75*
G02*
X-27075001Y-52000000I-3375000J-2D01*
G01*
X37500000Y-42000000D02*
G75*
G02*
X27500000Y-52000000I-10000000J0D01*
G01*
X37500000Y-24889250D02*
G75*
G02*
X38442160Y-21967814I5000300J50D01*
G01*
X-23700000Y-35375002D02*
G75*
G02*
X-20324998Y-32000000I3375000J2D01*
G01*
X-42557868Y-16250785D02*
X-38442132Y-21967902D01*
X10375000Y35500000D02*
X-10374999Y35500000D01*
X-43500000Y40499999D02*
G75*
G02*
X-38500001Y45500000I5000000J1D01*
G01*
X-43500000Y40499999D02*
X-43500000Y-13329533D01*
X-20324998Y-32000000D02*
X-6875001Y-32000000D01*
X38500000Y45500000D02*
X17125000Y45500000D01*
X-23700000Y-48624998D02*
X-23700000Y-35375002D01*
M02*
