M48
METRIC,0000.00
T01C0.3
T02C0.4
T03C0.7
T04C0.711
T05C0.8
T06C0.965
T07C1.0
T08C1.171
T09C1.2
T10C3.0
T11C3.2
%
T01
X+001612Y+002710
X+001612Y+003215
X+001866Y+003215
X+002628Y+002730
X+003145Y+002707
X+004413Y+002728
X+005427Y+002687
X+005404Y+003167
X+005676Y+003215
X+005918Y+003269
X+006163Y+003318
X+006702Y+003241
X+006952Y+003127
X+006946Y+002710
X+005934Y+002788
X+005618Y+003569
X+005378Y+003566
X+005088Y+004144
X+004994Y+004298
X+004417Y+004279
X+004158Y+004230
X+003613Y+005139
X+003608Y+005315
X+003644Y+006212
X+003390Y+006212
X+003644Y+006717
X+003893Y+006778
X+004153Y+006825
X+004406Y+006212
X+004914Y+006212
X+005429Y+006200
X+005168Y+006741
X+006187Y+007405
X+006360Y+007515
X+006440Y+006821
X+006692Y+006717
X+006946Y+006717
X+006723Y+006443
X+007783Y+005403
X+008441Y+003355
X+012605Y+003725
X+012600Y+003902
X+012535Y+005050
X+012531Y+005540
X+012448Y+009650
X+012702Y+009665
X+012700Y+010350
X+012950Y+010350
X+013200Y+010350
X+013200Y+010600
X+012950Y+010600
X+012700Y+010600
X+012450Y+010600
X+012200Y+010600
X+012200Y+010350
X+011950Y+010350
X+011700Y+010350
X+011700Y+010600
X+011950Y+010600
X+012450Y+010350
X+011686Y+009650
X+011001Y+009650
X+010162Y+009665
X+009900Y+009900
X+009654Y+009665
X+008500Y+009900
X+008300Y+009900
X+008384Y+009665
X+008130Y+009665
X+006860Y+009665
X+006800Y+009900
X+006098Y+009665
X+005300Y+009900
X+005082Y+009665
X+005900Y+011100
X+005703Y+011715
X+006144Y+011718
X+006091Y+012444
X+005923Y+012442
X+005745Y+012463
X+005865Y+012908
X+005606Y+013184
X+005218Y+013143
X+004860Y+012863
X+004753Y+013055
X+005014Y+012619
X+005237Y+012610
X+005224Y+012295
X+005014Y+012338
X+004950Y+011850
X+004950Y+011600
X+003950Y+011850
X+003950Y+012600
X+003950Y+012850
X+003950Y+013100
X+004268Y+012856
X+003334Y+012846
X+003200Y+013100
X+002950Y+013100
X+002386Y+012844
X+002200Y+013100
X+001950Y+012850
X+001437Y+012814
X+001349Y+013221
X+001450Y+014600
X+001450Y+014850
X+001450Y+015100
X+001450Y+015350
X+001450Y+015600
X+001450Y+015850
X+001700Y+015850
X+001700Y+016100
X+001950Y+016100
X+001950Y+016350
X+002600Y+016100
X+002600Y+015900
X+003200Y+016000
X+003200Y+016200
X+003800Y+016200
X+003800Y+016000
X+004300Y+016000
X+004300Y+016300
X+004900Y+016300
X+004900Y+016000
X+005526Y+015511
X+005845Y+015188
X+005920Y+014842
X+005734Y+014667
X+005496Y+014679
X+005142Y+014619
X+004916Y+014721
X+004926Y+014858
X+004540Y+014621
X+004309Y+014525
X+004166Y+014378
X+004450Y+014350
X+004950Y+014350
X+004319Y+014871
X+003937Y+014619
X+003837Y+014408
X+003735Y+014832
X+003334Y+014619
X+003332Y+014413
X+002935Y+014418
X+002605Y+014405
X+002552Y+014589
X+002528Y+014858
X+001977Y+014607
X+001700Y+015100
X+001700Y+015350
X+001700Y+015600
X+003135Y+014852
X+005852Y+016072
X+006283Y+016072
X+006501Y+015629
X+006502Y+015629
X+006911Y+015629
X+006912Y+015629
X+006923Y+015193
X+007190Y+015002
X+007421Y+015191
X+007437Y+015595
X+007484Y+016072
X+007056Y+016072
X+006784Y+016072
X+006600Y+016600
X+006500Y+016700
X+006100Y+016600
X+006000Y+016700
X+005600Y+016600
X+005500Y+016700
X+006044Y+015512
X+006393Y+015188
X+006348Y+014873
X+006292Y+014667
X+006739Y+014878
X+006798Y+014667
X+007295Y+014667
X+007804Y+014667
X+007862Y+014851
X+007909Y+015196
X+008114Y+015619
X+008571Y+015629
X+008572Y+015629
X+008995Y+015590
X+008974Y+015186
X+009325Y+015020
X+009446Y+015186
X+009334Y+014677
X+009326Y+014486
X+009504Y+014537
X+008865Y+014667
X+008685Y+014817
X+008349Y+014667
X+008280Y+014845
X+008448Y+015191
X+008416Y+016072
X+008840Y+016105
X+009450Y+016100
X+009700Y+015850
X+009200Y+016600
X+009400Y+017554
X+008892Y+017554
X+010162Y+017554
X+010670Y+017560
X+011178Y+017560
X+011686Y+017560
X+012194Y+017554
X+012702Y+017554
X+013464Y+017554
X+013972Y+017554
X+014480Y+017554
X+014783Y+017275
X+015035Y+017023
X+015291Y+016767
X+015553Y+016522
X+015799Y+016259
X+015450Y+015850
X+015200Y+015850
X+014950Y+015850
X+014700Y+015850
X+014450Y+015850
X+014200Y+015850
X+013950Y+015850
X+013950Y+016350
X+014200Y+016350
X+014450Y+016350
X+014700Y+016350
X+014950Y+016350
X+015200Y+016350
X+015890Y+015702
X+015901Y+015194
X+015901Y+014686
X+015890Y+014178
X+015901Y+013670
X+015901Y+013416
X+015901Y+012908
X+015700Y+012350
X+015700Y+012100
X+015901Y+012146
X+015700Y+011850
X+015700Y+011600
X+015901Y+011384
X+015723Y+010903
X+015215Y+010395
X+014881Y+010060
X+014471Y+009650
X+013718Y+009665
X+013200Y+011600
X+012950Y+011600
X+012700Y+011600
X+012450Y+011600
X+012200Y+011600
X+011950Y+011600
X+010700Y+011700
X+010700Y+012100
X+010673Y+012442
X+010492Y+012470
X+010866Y+012444
X+010623Y+012917
X+009945Y+012458
X+009435Y+012450
X+009254Y+012442
X+009064Y+012450
X+009200Y+012100
X+009034Y+011672
X+009300Y+011000
X+010700Y+011100
X+011498Y+012938
X+011521Y+013766
X+011526Y+014362
X+011450Y+014850
X+011700Y+014850
X+011950Y+014850
X+012200Y+014850
X+012525Y+015623
X+012702Y+015623
X+012956Y+015623
X+013210Y+015623
X+013200Y+016350
X+013450Y+016350
X+013700Y+016350
X+012950Y+016350
X+012200Y+016600
X+011200Y+014850
X+010950Y+014850
X+010700Y+014850
X+010450Y+014850
X+009450Y+013850
X+009200Y+013850
X+009117Y+013500
X+008700Y+013850
X+008450Y+012850
X+008450Y+012600
X+008349Y+012448
X+008200Y+012600
X+008200Y+012850
X+007816Y+012442
X+007641Y+012442
X+007448Y+012450
X+007600Y+012100
X+007417Y+011667
X+007600Y+011000
X+006800Y+011100
X+006623Y+012298
X+006897Y+012442
X+006890Y+012691
X+006542Y+012696
X+007598Y+012847
X+009209Y+012867
X+007951Y+016076
X+012966Y+013582
X+012898Y+013422
X+012867Y+012990
X+013567Y+013152
X+014246Y+013043
X+014470Y+012581
X+014919Y+012318
X+014997Y+012318
X+015002Y+012218
X+014921Y+012218
X+014676Y+012048
X+014633Y+011911
X+014898Y+013308
X+014903Y+013382
X+013575Y+014382
X+019653Y+013755
X+019653Y+013555
X+019653Y+013355
X+019653Y+013155
X+019653Y+012955
X+019653Y+012755
X+019653Y+012555
X+019653Y+012355
X+019653Y+012155
X+019653Y+011955
X+019853Y+011955
X+020053Y+011955
X+020253Y+011955
X+020453Y+011955
X+020453Y+012755
X+020453Y+012955
X+020453Y+013155
X+020453Y+013355
X+020453Y+013555
X+022053Y+013555
X+022053Y+013755
X+022053Y+013955
X+022053Y+014155
X+022053Y+014355
X+022053Y+014555
X+022053Y+014755
X+022053Y+014955
X+022053Y+015155
X+022053Y+015355
X+022808Y+013361
X+022652Y+011712
X+022351Y+011712
X+022253Y+010755
X+022253Y+010555
X+022453Y+010555
X+022653Y+010555
X+022853Y+010555
X+022853Y+010755
X+022653Y+010755
X+022453Y+010755
X+022053Y+010755
X+022053Y+010555
X+022053Y+010355
X+022253Y+010355
X+022253Y+010155
X+022253Y+009955
X+022453Y+009955
X+022453Y+009755
X+022253Y+009755
X+022053Y+009755
X+022053Y+009955
X+022053Y+010155
X+022453Y+010155
X+022853Y+010355
X+023053Y+010355
X+023053Y+010155
X+023053Y+009955
X+023253Y+009955
X+023253Y+009755
X+023053Y+009755
X+023053Y+009555
X+023253Y+009555
X+023253Y+009355
X+023253Y+009155
X+023253Y+008955
X+023253Y+008755
X+023253Y+008555
X+023253Y+008355
X+023253Y+008155
X+023053Y+008155
X+022853Y+008155
X+022853Y+008355
X+023053Y+008355
X+022603Y+008355
X+022353Y+008355
X+022103Y+008355
X+021853Y+008355
X+021853Y+008155
X+022103Y+008055
X+022353Y+008055
X+022603Y+008055
X+022453Y+009155
X+022453Y+009355
X+022453Y+009555
X+023053Y+009355
X+023053Y+009155
X+023253Y+010155
X+023253Y+010355
X+023253Y+010555
X+023253Y+010755
X+023053Y+010755
X+023053Y+010555
X+021653Y+010555
X+021653Y+010755
X+021453Y+010755
X+021253Y+010755
X+021253Y+010555
X+021253Y+010355
X+021253Y+010155
X+021253Y+009955
X+021453Y+009955
X+021453Y+009755
X+021253Y+009755
X+021253Y+009555
X+021253Y+009355
X+021253Y+009155
X+021253Y+008955
X+021453Y+008955
X+021653Y+008955
X+021653Y+008755
X+021453Y+008755
X+021453Y+008555
X+021453Y+008355
X+021253Y+008755
X+021453Y+009155
X+021453Y+009355
X+021453Y+009555
X+021453Y+010155
X+021453Y+010355
X+021453Y+010555
X+020553Y+008355
X+020303Y+008355
X+020053Y+008355
X+020053Y+008055
X+020303Y+008055
X+020553Y+008055
X+018503Y+008055
X+018253Y+008055
X+018003Y+008055
X+018003Y+008355
X+018253Y+008355
X+018503Y+008355
X+003450Y+010850
X+002700Y+010850
X+002950Y+011850
X+001950Y+011850
X+001125Y+011043
X+001612Y+006717
X+001612Y+006212
T02
X+022498Y+009232
T03
X+017513Y+016395
X+017803Y+015770
X+018003Y+015770
X+018203Y+015770
X+019813Y+016395
X+019813Y+016695
X+019813Y+017495
X+019813Y+017795
X+017513Y+017795
X+019030Y+014247
X+019030Y+013485
X+019030Y+011961
X+020386Y+010994
X+020848Y+011004
X+021063Y+012215
X+021563Y+012470
X+021563Y+012724
X+021563Y+012978
X+021563Y+013232
X+021563Y+013486
X+021563Y+013740
X+021563Y+013994
X+021563Y+014248
X+021563Y+014502
X+021563Y+014756
X+021563Y+015010
X+021063Y+014247
X+021063Y+013993
X+021063Y+013739
X+021063Y+013485
X+021063Y+013231
X+021063Y+012977
X+023087Y+012978
X+023087Y+013232
X+023087Y+013486
X+023087Y+013740
X+023087Y+013994
X+023087Y+014248
X+023087Y+014502
X+023087Y+014756
X+023087Y+015010
X+023087Y+015264
X+023087Y+012470
X+023087Y+011962
X+020848Y+008965
X+020553Y+008645
X+020053Y+008645
X+019783Y+008970
X+019726Y+009805
X+019282Y+009675
X+018709Y+009098
X+018361Y+008793
X+018203Y+010335
X+018003Y+010335
X+017803Y+010335
X+016700Y+001000
X+016500Y+001000
X+016300Y+001000
X+016600Y+000800
X+016800Y+000800
X+017000Y+000800
X+023600Y+000600
X+006800Y+000800
X+006600Y+000800
X+006400Y+000800
X+006500Y+001000
X+006300Y+001000
X+006100Y+001000
X+000600Y+000600
X+000600Y+018200
X+023600Y+018200
T04
X+017965Y+003660
X+018218Y+003660
X+018218Y+003660
X+018471Y+003660
X+018724Y+003660
X+018977Y+003660
X+019230Y+003660
X+019230Y+003660
X+019483Y+003660
X+019736Y+003660
X+019989Y+003660
X+020242Y+003660
X+020495Y+003660
X+020747Y+003660
X+021000Y+003660
X+021253Y+003660
X+021506Y+003660
X+021506Y+005930
X+021253Y+005930
X+021000Y+005930
X+020747Y+005930
X+020495Y+005930
X+020242Y+005930
X+019989Y+005930
X+019736Y+005930
X+019483Y+005930
X+019230Y+005930
X+018977Y+005930
X+018724Y+005930
X+018471Y+005930
X+018218Y+005930
X+018218Y+005930
X+017965Y+005930
T05
X+018653Y+016055
X+018907Y+016055
X+019161Y+016055
X+019415Y+016055
X+019669Y+016055
X+019923Y+016055
X+020177Y+016055
X+020431Y+016055
X+020438Y+017795
X+020184Y+017795
X+020943Y+017795
X+021197Y+017795
X+021451Y+017795
X+021705Y+017795
X+021959Y+017795
X+022213Y+017795
X+022467Y+017795
X+022721Y+017795
X+022975Y+017795
X+023087Y+011199
X+023087Y+010945
X+022173Y+011060
X+021919Y+011060
X+021608Y+008090
X+021354Y+008090
X+021100Y+008090
X+019506Y+008090
X+019252Y+008090
X+018998Y+008090
T06
X+017955Y+003406
X+018209Y+003406
T07
X+013114Y+006319
X+012860Y+006319
X+012606Y+006319
X+012352Y+006319
X+012098Y+006319
X+011844Y+006319
X+011590Y+006319
X+012940Y+005795
X+012940Y+005541
X+012940Y+005287
X+012940Y+005033
X+012940Y+004779
X+012940Y+004525
X+012940Y+004271
X+013194Y+004271
X+013194Y+004525
X+013194Y+004779
X+013194Y+005033
X+013194Y+005287
X+013194Y+005541
X+013194Y+005795
X+013788Y+005867
X+013788Y+006121
X+014042Y+006121
X+014042Y+005867
X+014296Y+005867
X+014296Y+006121
X+014550Y+006121
X+014550Y+005867
X+014804Y+005867
X+014804Y+006121
X+015058Y+006121
X+015058Y+005867
X+015312Y+005867
X+015312Y+006121
X+015314Y+005406
X+015060Y+005406
X+014806Y+005406
X+014806Y+005152
X+015060Y+005152
X+015314Y+005152
X+014552Y+005152
X+014298Y+005152
X+014044Y+005152
X+014044Y+005406
X+014298Y+005406
X+014552Y+005406
X+013790Y+005406
X+013790Y+005152
X+008214Y+004776
X+007961Y+004776
X+007707Y+004776
X+007707Y+004523
X+007961Y+004523
X+008214Y+004523
X+007452Y+004523
X+007452Y+004776
X+007199Y+004776
X+007199Y+004523
X+006945Y+004523
X+006945Y+004776
X+006690Y+004776
X+006690Y+004523
X+006437Y+004523
X+006437Y+004776
X+006183Y+004776
X+006183Y+004523
X+005928Y+004523
X+005928Y+004776
X+005675Y+004776
X+005675Y+004523
X+005421Y+004523
X+005421Y+004776
X+005166Y+004776
X+005166Y+004523
X+004912Y+004523
X+004659Y+004523
X+004659Y+004776
X+004912Y+004776
X+004404Y+004776
X+004404Y+004523
X+004150Y+004523
X+003897Y+004523
X+003897Y+004776
X+004150Y+004776
X+003642Y+004776
X+003642Y+004523
X+003388Y+004523
X+003135Y+004523
X+003135Y+004776
X+003388Y+004776
X+002880Y+004776
X+002626Y+004776
X+002373Y+004776
X+002373Y+004523
X+002626Y+004523
X+002880Y+004523
X+002118Y+004523
X+001864Y+004523
X+001864Y+004776
X+001611Y+004776
X+001611Y+004523
X+001357Y+004523
X+001357Y+004776
X+002118Y+004776
X+002045Y+013677
X+002299Y+013677
X+002553Y+013677
X+002807Y+013677
X+003061Y+013677
X+003315Y+013677
X+003569Y+013677
X+003823Y+013677
X+004077Y+013677
X+004331Y+013677
X+004585Y+013677
X+004839Y+013677
X+005093Y+013677
X+005347Y+013677
X+005601Y+013677
X+005855Y+013677
X+006109Y+013677
X+006363Y+013677
X+006617Y+013677
X+006871Y+013677
X+007125Y+013677
X+007379Y+013677
X+007633Y+013677
X+007887Y+013677
X+008141Y+013677
X+008395Y+013677
X+008395Y+013932
X+008141Y+013932
X+007887Y+013932
X+007633Y+013932
X+007379Y+013932
X+007125Y+013932
X+006871Y+013932
X+006617Y+013932
X+006363Y+013932
X+006109Y+013932
X+005855Y+013932
X+005601Y+013932
X+005347Y+013932
X+005093Y+013932
X+004839Y+013932
X+004585Y+013932
X+004331Y+013932
X+004077Y+013932
X+003823Y+013932
X+003569Y+013932
X+003315Y+013932
X+003061Y+013932
X+002807Y+013932
X+002553Y+013932
X+002299Y+013932
X+002045Y+013932
X+001791Y+013932
X+001537Y+013932
X+001537Y+013677
X+001791Y+013677
X+010386Y+015913
X+010640Y+015913
X+010640Y+016167
X+010386Y+016167
X+010894Y+016167
X+010894Y+015913
X+011148Y+015913
X+011148Y+016167
X+011402Y+016167
X+011402Y+015913
X+011656Y+015913
X+011656Y+016167
X+011910Y+016167
X+011910Y+015913
X+012164Y+015913
X+012164Y+016167
X+013126Y+014972
X+013380Y+014972
X+013380Y+014717
X+013126Y+014717
X+013126Y+014463
X+013380Y+014463
X+013380Y+014210
X+013126Y+014210
X+013126Y+013955
X+013380Y+013955
X+013380Y+013701
X+013380Y+013448
X+013126Y+013448
X+013126Y+013701
X+014018Y+014371
X+014272Y+014371
X+014526Y+014371
X+014526Y+014625
X+014272Y+014625
X+014018Y+014625
X+014018Y+015085
X+014272Y+015085
X+014526Y+015085
X+014526Y+015339
X+014272Y+015339
X+014018Y+015339
X+014780Y+015339
X+015034Y+015339
X+015288Y+015339
X+015288Y+015085
X+015034Y+015085
X+014780Y+015085
X+014780Y+014625
X+015034Y+014625
X+015034Y+014371
X+015288Y+014371
X+015288Y+014625
X+015542Y+014625
X+015542Y+014371
X+015542Y+015085
X+015542Y+015339
X+014780Y+014371
X+013211Y+012491
X+013211Y+012238
X+012957Y+012238
X+012957Y+012491
X+012703Y+012491
X+012703Y+012238
X+012449Y+012238
X+012449Y+012491
X+012195Y+012491
X+012195Y+012238
X+011941Y+012238
X+011941Y+012491
X+011687Y+012491
X+011687Y+012238
T08
X+022634Y+005151
X+022634Y+004897
X+022634Y+004643
X+022634Y+004389
T09
X+011103Y+002117
X+011484Y+002117
X+011865Y+002117
X+012246Y+002117
X+012627Y+002117
X+013008Y+002117
X+013389Y+002117
X+013770Y+002117
X+014151Y+002116
X+014532Y+002116
X+014542Y+010370
X+014192Y+010370
X+010765Y+010348
X+010415Y+010348
X+010065Y+010348
X+009715Y+010348
X+009365Y+010348
X+009015Y+010348
X+008665Y+010348
X+008315Y+010348
X+007709Y+010348
X+007359Y+010348
X+007009Y+010348
X+006659Y+010348
X+006309Y+010348
X+005959Y+010348
X+005609Y+010348
X+005259Y+010348
X+004909Y+010348
X+004559Y+010348
X+004209Y+010348
X+003859Y+010348
X+003509Y+010348
X+003159Y+010348
X+002809Y+010348
X+002459Y+010348
X+002515Y+017020
X+002865Y+017020
X+003215Y+017020
X+003565Y+017020
X+003915Y+017020
X+004265Y+017020
X+004615Y+017020
X+004965Y+017020
X+005315Y+017020
X+005665Y+017020
X+006015Y+017020
X+006365Y+017020
X+006715Y+017020
X+007065Y+017020
X+007415Y+017020
X+007765Y+017020
X+008366Y+017020
X+008716Y+017020
X+009066Y+017020
X+009416Y+017020
X+009766Y+017020
X+010116Y+017020
X+010466Y+017020
X+010816Y+017020
X+011166Y+017020
X+011516Y+017020
X+011866Y+017020
X+012216Y+017020
X+012566Y+017020
X+012916Y+017020
X+013266Y+017020
X+013616Y+017020
X+014216Y+017024
X+014566Y+017024
T10
X+000200Y+018700
X+000200Y+000200
X+024000Y+000200
X+024000Y+018700
T11
X+001505Y+009846
X+001206Y+006501
X+001206Y+002945
X+007361Y+002946
X+007361Y+006502
X+015550Y+009846
X+015542Y+017492
X+001505Y+017492
T00
M30
