M48
;Layer_Color=9474304
;FILE_FORMAT=4:2
METRIC
;TYPE=PLATED
T01F00S00C0.55
;TYPE=NON_PLATED
T02F00S00C0.45
T04F00S00C0.85
T05F00S00C0.95
T06F00S00C1.25
T07F00S00C2.30
T08F00S00C3.05
%
T01
X001968Y000317
X003175
X004166Y000622
X005321Y000317
X005855Y000457
X006751Y000856
X006350Y001295
X006540Y001600
X006325Y001968
Y003365
Y003785
X006858Y003874
X007315Y003315
Y002667
X008192Y004254
X008534Y004702
X008382Y005194
X008141Y005718
X008433Y006375
X008052Y006998
X008738Y007557
X007694
X007683Y005715
X007366
X007899Y005169
X007099Y004496
X006083Y004991
X004643Y005855
X001778Y006350
X001016
Y005080
X001778
X000203Y007811
Y009157
X001232Y009741
X003429Y009144
Y008382
X005334
Y009144
T02
X000000Y000000
X010000Y000000
X000000Y010000
X010000
T04
X001080Y000317
X001334
X003899Y000330
X004153
X004407
X006751Y000427
X007005
X007259
X007513
X006287Y002476
Y002676
X005334Y003492
X005080
X004826
X007961Y002676
Y002476
X008192Y007303
Y007557
X009207
Y007303
X007175
Y007049
Y007557
X006160Y007222
X005906
X005651
X005397
Y004873
Y004619
X005651
Y004873
X005144
Y004619
X002350Y007938
Y009715
X006414
Y007938
T05
X000826Y001080
X001080
X001334
X001588
X001842
X002095
X002350
X002603
X002858
X003111
X003365
X003619
X003874
Y002603
X003619
X003365
X003111
X002858
X002603
X002350
X002095
X001842
X001588
X001334
X001080
X000826
Y002984
X001080
X001334
X001588
X001842
X002095
X002350
X002603
X002858
X003111
X003365
X003619
X003874
X004128
X004381
X004635
X004890
X005144
X005397
X005651
Y002603
X005397
X005144
X004890
X004635
X004381
X004128
Y001080
X004381
X004635
X004890
X005144
X005397
X005651
X008419Y001653
X008619
Y001903
X008419
X006668Y005317
X006414
X006160
X005906
X005651
X005397
X005144
X004890
Y006587
X005144
X005397
X005651
X005906
X006160
X006414
X006668
X007747Y008700
X008001
X008255
T06
X007079Y009191
X008915
T07
X008890Y001176
Y002380
T08
X000400Y000400
X000491Y003628
X004191
X009600Y000400
X004191Y007328
X000491
X000400Y009600
X009600
M30
