; Drill file
; Format: 3.3 (000.000)
M48
METRIC
T01C0.3
T02C0.5
T03C0.55
T04C0.6
T05C0.65
T06C0.7
T07C0.72
T08C0.8
T09C0.85
T10C1.0
T11C3.0
%
G05
G90
T01
X000400Y-067230
X000400Y-000400
X185420Y-000400
X185340Y-067230
T02
X123030Y-046430
X123190Y-041830
X127950Y-041830
X128110Y-046430
T03
X138200Y-026650
X138200Y-024650
X141300Y-026650
X143300Y-026650
X145300Y-026650
X147300Y-026650
X153700Y-025650
X155700Y-025650
X157700Y-025650
X159700Y-025650
X161500Y-021650
X161500Y-019650
X161500Y-017650
X161500Y-015650
X165170Y-014430
X165170Y-016970
X165170Y-019510
X165170Y-022050
X159700Y-011250
X157700Y-011250
X155700Y-011250
X153700Y-011250
X147300Y-010150
X145300Y-010150
X143300Y-010150
X141300Y-010150
T04
X019680Y-058730
X036500Y-058730
X011360Y-030160
X006280Y-030160
X019680Y-019040
X036500Y-019040
X096600Y-037860
X099140Y-037860
X101680Y-037860
X104220Y-037860
X106760Y-037860
X109300Y-037860
X111840Y-037860
X114380Y-037860
X116920Y-037860
X119460Y-037860
X122000Y-037860
X124540Y-037860
X127080Y-037860
X129620Y-037860
X132160Y-037860
X134700Y-037860
X137240Y-037860
X139780Y-037860
X142320Y-037860
X144860Y-037860
X144860Y-053100
X142350Y-053100
X139780Y-053100
X137240Y-053100
X134700Y-053100
X132160Y-053100
X129620Y-053100
X127080Y-053100
X124540Y-053100
X122000Y-053100
X119460Y-053100
X116920Y-053100
X114380Y-053100
X111840Y-053100
X109300Y-053100
X106760Y-053100
X104220Y-053100
X101680Y-053100
X099140Y-053100
X096600Y-053100
X111490Y-029100
X111490Y-026560
X111490Y-024020
X111490Y-021480
X111490Y-018940
X111490Y-016400
X111490Y-013860
X111490Y-011320
X106040Y-014050
X106040Y-016590
X106040Y-019130
X103500Y-019130
X103500Y-016590
X103500Y-014050
X124190Y-013860
X124190Y-016400
X124190Y-018940
X124190Y-021480
X124190Y-024020
X124190Y-026560
X124190Y-029100
X131810Y-024020
X131810Y-021480
X131810Y-018940
X131810Y-016400
X124190Y-011320
T05
X169900Y-013970
X174660Y-013660
X177200Y-013660
X177200Y-017470
X174660Y-017470
X175930Y-021430
X181960Y-013970
X175930Y-009210
T06
X009360Y-017810
X005260Y-014810
X009360Y-011160
T07
X089330Y-029920
X091820Y-029920
X129680Y-006350
X133190Y-006350
X150180Y-036820
X150180Y-039360
X150180Y-041900
X148910Y-050870
X148910Y-053410
X148910Y-055950
X179160Y-028620
X179160Y-026130
T08
X005840Y-059130
X013340Y-059130
X009450Y-047620
X044130Y-048860
X044130Y-046320
X044130Y-043780
X044130Y-041240
X044130Y-038700
X044130Y-036160
X048780Y-058740
X051320Y-058740
X086680Y-041830
X092310Y-033420
X098000Y-028500
X103030Y-032700
X119300Y-032620
X117320Y-058700
X114140Y-058700
X115570Y-065010
X092150Y-053260
X086680Y-015160
X096090Y-006590
X156370Y-036350
X158040Y-038580
X156050Y-041670
X164390Y-047700
X161210Y-056120
X161050Y-059130
X164310Y-059450
X167480Y-059370
X172800Y-062070
X182400Y-051360
X179470Y-046510
X173430Y-033260
X167720Y-031590
X167640Y-009600
X014760Y-008610
X005360Y-008660
T09
X084250Y-007600
X089330Y-007600
T10
X046140Y-063710
X092230Y-022150
X092230Y-019610
X092230Y-017070
X097160Y-020080
T11
X044190Y-053050
X081190Y-053050
X081190Y-016050
X044290Y-015950
M30
