M48
;Layer_Color=9474304
;FILE_FORMAT=4:2
METRIC
;TYPE=PLATED
T01F00S00C0.55
;TYPE=NON_PLATED
T02F00S00C0.45
T03F00S00C0.85
T04F00S00C0.95
T06F00S00C1.25
T07F00S00C3.05
%
T01
X006482Y000810
X006487Y002355
X006393Y002941
X006553Y003726
Y004819
X005735Y004432
X005038Y004440
X006386Y007742
T02
X000000Y000000
X009500
X000000Y009500
X009500
T03
X006985Y001651
Y001905
Y002159
Y002413
Y002667
Y002921
Y003175
Y003429
Y003683
Y003937
X008509
Y003683
Y003429
Y003175
Y002921
Y002667
Y002413
Y002159
Y001905
Y001651
X008890
Y001905
Y002159
Y002413
Y002667
Y002921
Y003175
Y003429
Y003683
Y003937
X009246Y003170
Y002916
Y002662
X008890Y004191
Y004445
Y004699
Y004953
Y005207
Y005461
Y005715
Y005969
Y006223
Y006477
X008509
Y006223
Y005969
Y005715
Y005461
Y005207
Y004953
Y004699
Y004445
Y004191
X008537Y007115
Y007369
X007650Y007366
Y007112
X006985Y006477
Y006223
Y005969
Y005715
Y005461
Y005207
Y004953
Y004699
Y004445
Y004191
X006109Y004140
X005855
X005601
X005605Y004953
Y005207
Y005461
X005859
Y005207
Y004953
X005287
Y005207
Y005461
Y005715
Y005969
Y006223
Y006477
X004017
Y006223
Y005969
Y005715
Y005461
Y005207
Y004953
Y004699
X005287
X005906Y007429
X001842
X002223Y006628
X002423
Y004953
X002223
X000702Y004996
X000722Y006531
X001842Y009207
X005906
T04
X005906Y005982
Y006236
X006718Y007026
Y007280
Y007534
X003467Y005969
Y005715
Y005461
Y005207
X007201Y008318
X007455
X007709
T06
X006533Y008810
X008369
T07
X000381Y000381
X001094Y000383
X004794
X009100Y000400
X004794Y004083
X001094
X000400Y009100
X009100
M30
